<svg xmlns="http://www.w3.org/2000/svg" viewBox="0 0 64 64" role="img" aria-label="Leo Park profile avatar">
  <defs><linearGradient id="c" x1="7" y1="4" x2="57" y2="60"><stop stop-color="#72e6a2"/><stop offset="1" stop-color="#1688ff"/></linearGradient></defs>
  <rect width="64" height="64" rx="32" fill="url(#c)"/>
  <circle cx="32" cy="26" r="12" fill="#f0c19c"/>
  <path d="M19 23C21 11 27 7 34 7c9 0 14 7 13 17-4-4-8-7-14-8-4 4-8 6-14 7Z" fill="#182b39"/>
  <path d="M11 64c2-17 10-25 21-25s19 8 21 25" fill="#f7e6ae"/>
  <circle cx="27" cy="26" r="1.4" fill="#30241f"/><circle cx="38" cy="26" r="1.4" fill="#30241f"/>
  <path d="M28 32c2.6 1.8 5.4 1.8 8 0" fill="none" stroke="#a95e54" stroke-linecap="round" stroke-width="1.4"/>
</svg>
