<svg xmlns="http://www.w3.org/2000/svg" viewBox="0 0 64 64" role="img" aria-label="Noor Ali profile avatar">
  <defs><linearGradient id="b" x1="5" y1="3" x2="59" y2="61"><stop stop-color="#ffb84c"/><stop offset="1" stop-color="#ff526f"/></linearGradient></defs>
  <rect width="64" height="64" rx="32" fill="url(#b)"/>
  <path d="M17 29c0-14 6-22 15-22 10 0 16 9 15 22l-4 14H21Z" fill="#35233d"/>
  <ellipse cx="32" cy="27" rx="11" ry="13" fill="#dca77f"/>
  <path d="M19 26c3-13 10-18 20-16 5 3 8 9 8 17-7-2-11-6-14-11-3 5-7 8-14 10Z" fill="#35233d"/>
  <path d="M10 64c3-16 11-24 22-24s19 8 22 24" fill="#1b365d"/>
  <circle cx="28" cy="27" r="1.3" fill="#2d211c"/><circle cx="37" cy="27" r="1.3" fill="#2d211c"/>
  <path d="M29 33c2.4 1.6 4.8 1.6 7.2 0" fill="none" stroke="#8f4e46" stroke-linecap="round" stroke-width="1.4"/>
</svg>
